<mxfile host="app.diagrams.net" modified="2024-01-27T21:34:18.364Z" agent="Mozilla/5.0 (Windows NT 10.0; Win64; x64; rv:122.0) Gecko/20100101 Firefox/122.0" etag="XSZ9FO1WvlpHmcB8btJg" version="23.0.2" type="google">
  <diagram name="Page-1" id="jGZNEvQZiI-ueHFqZGQY">
    <mxGraphModel grid="1" page="1" gridSize="10" guides="1" tooltips="1" connect="0" arrows="0" fold="1" pageScale="1" pageWidth="827" pageHeight="583" math="0" shadow="0">
      <root>
        <mxCell id="0" />
        <mxCell id="1" parent="0" />
        <mxCell id="b28b4HY3Dz4Q6kAJIT05-4" value="" style="rounded=0;whiteSpace=wrap;html=1;movable=1;resizable=1;rotatable=1;deletable=1;editable=1;locked=0;connectable=1;" vertex="1" parent="1">
          <mxGeometry x="110" y="122.5" width="630" height="290" as="geometry" />
        </mxCell>
        <mxCell id="b28b4HY3Dz4Q6kAJIT05-31" value="" style="group;fontSize=9;" connectable="0" vertex="1" parent="1">
          <mxGeometry x="460" y="280" width="120" height="40" as="geometry" />
        </mxCell>
        <mxCell id="b28b4HY3Dz4Q6kAJIT05-6" value="x1" style="whiteSpace=wrap;html=1;aspect=fixed;fontSize=9;" vertex="1" parent="b28b4HY3Dz4Q6kAJIT05-31">
          <mxGeometry width="20" height="20" as="geometry" />
        </mxCell>
        <mxCell id="b28b4HY3Dz4Q6kAJIT05-7" value="X2" style="whiteSpace=wrap;html=1;aspect=fixed;fontSize=9;" vertex="1" parent="b28b4HY3Dz4Q6kAJIT05-31">
          <mxGeometry x="20" width="20" height="20" as="geometry" />
        </mxCell>
        <mxCell id="b28b4HY3Dz4Q6kAJIT05-8" value="X7" style="whiteSpace=wrap;html=1;aspect=fixed;fontSize=9;" vertex="1" parent="b28b4HY3Dz4Q6kAJIT05-31">
          <mxGeometry y="20" width="20" height="20" as="geometry" />
        </mxCell>
        <mxCell id="b28b4HY3Dz4Q6kAJIT05-9" value="X8" style="whiteSpace=wrap;html=1;aspect=fixed;fontSize=9;" vertex="1" parent="b28b4HY3Dz4Q6kAJIT05-31">
          <mxGeometry x="20" y="20" width="20" height="20" as="geometry" />
        </mxCell>
        <mxCell id="b28b4HY3Dz4Q6kAJIT05-11" value="X3" style="whiteSpace=wrap;html=1;aspect=fixed;fontSize=9;" vertex="1" parent="b28b4HY3Dz4Q6kAJIT05-31">
          <mxGeometry x="40" width="20" height="20" as="geometry" />
        </mxCell>
        <mxCell id="b28b4HY3Dz4Q6kAJIT05-12" value="X4" style="whiteSpace=wrap;html=1;aspect=fixed;fontSize=9;" vertex="1" parent="b28b4HY3Dz4Q6kAJIT05-31">
          <mxGeometry x="60" width="20" height="20" as="geometry" />
        </mxCell>
        <mxCell id="b28b4HY3Dz4Q6kAJIT05-13" value="X9" style="whiteSpace=wrap;html=1;aspect=fixed;fontSize=9;" vertex="1" parent="b28b4HY3Dz4Q6kAJIT05-31">
          <mxGeometry x="40" y="20" width="20" height="20" as="geometry" />
        </mxCell>
        <mxCell id="b28b4HY3Dz4Q6kAJIT05-14" value="&lt;div style=&quot;font-size: 9px;&quot;&gt;X10&lt;/div&gt;" style="whiteSpace=wrap;html=1;aspect=fixed;fontSize=9;" vertex="1" parent="b28b4HY3Dz4Q6kAJIT05-31">
          <mxGeometry x="60" y="20" width="20" height="20" as="geometry" />
        </mxCell>
        <mxCell id="b28b4HY3Dz4Q6kAJIT05-15" value="X5" style="whiteSpace=wrap;html=1;aspect=fixed;fontSize=9;" vertex="1" parent="b28b4HY3Dz4Q6kAJIT05-31">
          <mxGeometry x="80" width="20" height="20" as="geometry" />
        </mxCell>
        <mxCell id="b28b4HY3Dz4Q6kAJIT05-16" value="X6" style="whiteSpace=wrap;html=1;aspect=fixed;fontSize=9;" vertex="1" parent="b28b4HY3Dz4Q6kAJIT05-31">
          <mxGeometry x="100" width="20" height="20" as="geometry" />
        </mxCell>
        <mxCell id="b28b4HY3Dz4Q6kAJIT05-17" value="X11" style="whiteSpace=wrap;html=1;aspect=fixed;fontSize=9;" vertex="1" parent="b28b4HY3Dz4Q6kAJIT05-31">
          <mxGeometry x="80" y="20" width="20" height="20" as="geometry" />
        </mxCell>
        <mxCell id="b28b4HY3Dz4Q6kAJIT05-18" value="X12" style="whiteSpace=wrap;html=1;aspect=fixed;fontSize=9;" vertex="1" parent="b28b4HY3Dz4Q6kAJIT05-31">
          <mxGeometry x="100" y="20" width="20" height="20" as="geometry" />
        </mxCell>
        <mxCell id="b28b4HY3Dz4Q6kAJIT05-32" value="X" style="group;fontSize=9;" connectable="0" vertex="1" parent="1">
          <mxGeometry x="460" y="350" width="120" height="40" as="geometry" />
        </mxCell>
        <mxCell id="b28b4HY3Dz4Q6kAJIT05-19" value="X13" style="whiteSpace=wrap;html=1;aspect=fixed;fontSize=9;" vertex="1" parent="b28b4HY3Dz4Q6kAJIT05-32">
          <mxGeometry width="20" height="20" as="geometry" />
        </mxCell>
        <mxCell id="b28b4HY3Dz4Q6kAJIT05-20" value="X14" style="whiteSpace=wrap;html=1;aspect=fixed;fontSize=9;" vertex="1" parent="b28b4HY3Dz4Q6kAJIT05-32">
          <mxGeometry x="20" width="20" height="20" as="geometry" />
        </mxCell>
        <mxCell id="b28b4HY3Dz4Q6kAJIT05-21" value="X19" style="whiteSpace=wrap;html=1;aspect=fixed;fontSize=9;" vertex="1" parent="b28b4HY3Dz4Q6kAJIT05-32">
          <mxGeometry y="20" width="20" height="20" as="geometry" />
        </mxCell>
        <mxCell id="b28b4HY3Dz4Q6kAJIT05-22" value="X20" style="whiteSpace=wrap;html=1;aspect=fixed;fontSize=9;" vertex="1" parent="b28b4HY3Dz4Q6kAJIT05-32">
          <mxGeometry x="20" y="20" width="20" height="20" as="geometry" />
        </mxCell>
        <mxCell id="b28b4HY3Dz4Q6kAJIT05-23" value="X15" style="whiteSpace=wrap;html=1;aspect=fixed;fontSize=9;" vertex="1" parent="b28b4HY3Dz4Q6kAJIT05-32">
          <mxGeometry x="40" width="20" height="20" as="geometry" />
        </mxCell>
        <mxCell id="b28b4HY3Dz4Q6kAJIT05-24" value="X16" style="whiteSpace=wrap;html=1;aspect=fixed;fontSize=9;" vertex="1" parent="b28b4HY3Dz4Q6kAJIT05-32">
          <mxGeometry x="60" width="20" height="20" as="geometry" />
        </mxCell>
        <mxCell id="b28b4HY3Dz4Q6kAJIT05-25" value="X21" style="whiteSpace=wrap;html=1;aspect=fixed;fontSize=9;" vertex="1" parent="b28b4HY3Dz4Q6kAJIT05-32">
          <mxGeometry x="40" y="20" width="20" height="20" as="geometry" />
        </mxCell>
        <mxCell id="b28b4HY3Dz4Q6kAJIT05-26" value="X22" style="whiteSpace=wrap;html=1;aspect=fixed;fontSize=9;" vertex="1" parent="b28b4HY3Dz4Q6kAJIT05-32">
          <mxGeometry x="60" y="20" width="20" height="20" as="geometry" />
        </mxCell>
        <mxCell id="b28b4HY3Dz4Q6kAJIT05-27" value="X17" style="whiteSpace=wrap;html=1;aspect=fixed;fontSize=9;" vertex="1" parent="b28b4HY3Dz4Q6kAJIT05-32">
          <mxGeometry x="80" width="20" height="20" as="geometry" />
        </mxCell>
        <mxCell id="b28b4HY3Dz4Q6kAJIT05-28" value="X18" style="whiteSpace=wrap;html=1;aspect=fixed;fontSize=9;" vertex="1" parent="b28b4HY3Dz4Q6kAJIT05-32">
          <mxGeometry x="100" width="20" height="20" as="geometry" />
        </mxCell>
        <mxCell id="b28b4HY3Dz4Q6kAJIT05-29" value="X23" style="whiteSpace=wrap;html=1;aspect=fixed;fontSize=9;" vertex="1" parent="b28b4HY3Dz4Q6kAJIT05-32">
          <mxGeometry x="80" y="20" width="20" height="20" as="geometry" />
        </mxCell>
        <mxCell id="b28b4HY3Dz4Q6kAJIT05-30" value="X24" style="whiteSpace=wrap;html=1;aspect=fixed;fontSize=9;" vertex="1" parent="b28b4HY3Dz4Q6kAJIT05-32">
          <mxGeometry x="100" y="20" width="20" height="20" as="geometry" />
        </mxCell>
        <mxCell id="b28b4HY3Dz4Q6kAJIT05-52" value="" style="group" connectable="0" vertex="1" parent="1">
          <mxGeometry x="620" y="320" width="80" height="80" as="geometry" />
        </mxCell>
        <mxCell id="b28b4HY3Dz4Q6kAJIT05-34" value="7" style="whiteSpace=wrap;html=1;aspect=fixed;" vertex="1" parent="b28b4HY3Dz4Q6kAJIT05-52">
          <mxGeometry width="20" height="20" as="geometry" />
        </mxCell>
        <mxCell id="b28b4HY3Dz4Q6kAJIT05-35" value="8" style="whiteSpace=wrap;html=1;aspect=fixed;" vertex="1" parent="b28b4HY3Dz4Q6kAJIT05-52">
          <mxGeometry x="20" width="20" height="20" as="geometry" />
        </mxCell>
        <mxCell id="b28b4HY3Dz4Q6kAJIT05-36" value="9" style="whiteSpace=wrap;html=1;aspect=fixed;" vertex="1" parent="b28b4HY3Dz4Q6kAJIT05-52">
          <mxGeometry x="40" width="20" height="20" as="geometry" />
        </mxCell>
        <mxCell id="b28b4HY3Dz4Q6kAJIT05-37" value="-" style="whiteSpace=wrap;html=1;aspect=fixed;" vertex="1" parent="b28b4HY3Dz4Q6kAJIT05-52">
          <mxGeometry x="60" width="20" height="20" as="geometry" />
        </mxCell>
        <mxCell id="b28b4HY3Dz4Q6kAJIT05-38" value="4" style="whiteSpace=wrap;html=1;aspect=fixed;" vertex="1" parent="b28b4HY3Dz4Q6kAJIT05-52">
          <mxGeometry y="20" width="20" height="20" as="geometry" />
        </mxCell>
        <mxCell id="b28b4HY3Dz4Q6kAJIT05-39" value="5" style="whiteSpace=wrap;html=1;aspect=fixed;" vertex="1" parent="b28b4HY3Dz4Q6kAJIT05-52">
          <mxGeometry x="20" y="20" width="20" height="20" as="geometry" />
        </mxCell>
        <mxCell id="b28b4HY3Dz4Q6kAJIT05-40" value="6" style="whiteSpace=wrap;html=1;aspect=fixed;" vertex="1" parent="b28b4HY3Dz4Q6kAJIT05-52">
          <mxGeometry x="40" y="20" width="20" height="20" as="geometry" />
        </mxCell>
        <mxCell id="b28b4HY3Dz4Q6kAJIT05-41" value="+" style="whiteSpace=wrap;html=1;aspect=fixed;" vertex="1" parent="b28b4HY3Dz4Q6kAJIT05-52">
          <mxGeometry x="60" y="20" width="20" height="20" as="geometry" />
        </mxCell>
        <mxCell id="b28b4HY3Dz4Q6kAJIT05-42" value="1" style="whiteSpace=wrap;html=1;aspect=fixed;" vertex="1" parent="b28b4HY3Dz4Q6kAJIT05-52">
          <mxGeometry y="40" width="20" height="20" as="geometry" />
        </mxCell>
        <mxCell id="b28b4HY3Dz4Q6kAJIT05-43" value="2" style="whiteSpace=wrap;html=1;aspect=fixed;" vertex="1" parent="b28b4HY3Dz4Q6kAJIT05-52">
          <mxGeometry x="20" y="40" width="20" height="20" as="geometry" />
        </mxCell>
        <mxCell id="b28b4HY3Dz4Q6kAJIT05-44" value="3" style="whiteSpace=wrap;html=1;aspect=fixed;" vertex="1" parent="b28b4HY3Dz4Q6kAJIT05-52">
          <mxGeometry x="40" y="40" width="20" height="20" as="geometry" />
        </mxCell>
        <mxCell id="b28b4HY3Dz4Q6kAJIT05-48" value="." style="whiteSpace=wrap;html=1;aspect=fixed;" vertex="1" parent="b28b4HY3Dz4Q6kAJIT05-52">
          <mxGeometry x="40" y="60" width="20" height="20" as="geometry" />
        </mxCell>
        <mxCell id="b28b4HY3Dz4Q6kAJIT05-50" value="0" style="rounded=0;whiteSpace=wrap;html=1;" vertex="1" parent="b28b4HY3Dz4Q6kAJIT05-52">
          <mxGeometry y="60" width="40" height="20" as="geometry" />
        </mxCell>
        <mxCell id="b28b4HY3Dz4Q6kAJIT05-51" value="&lt;font style=&quot;font-size: 20px;&quot;&gt;⏎&lt;/font&gt;" style="rounded=0;whiteSpace=wrap;html=1;" vertex="1" parent="b28b4HY3Dz4Q6kAJIT05-52">
          <mxGeometry x="60" y="40" width="20" height="40" as="geometry" />
        </mxCell>
        <mxCell id="b28b4HY3Dz4Q6kAJIT05-164" value="touch&lt;br&gt;&lt;div&gt;lcd&lt;/div&gt;" style="rounded=0;whiteSpace=wrap;html=1;" vertex="1" parent="1">
          <mxGeometry x="470" y="150" width="70" height="50" as="geometry" />
        </mxCell>
        <mxCell id="b28b4HY3Dz4Q6kAJIT05-186" value="" style="group" connectable="0" vertex="1" parent="1">
          <mxGeometry x="565" y="160" width="165" height="50" as="geometry" />
        </mxCell>
        <mxCell id="b28b4HY3Dz4Q6kAJIT05-184" value="" style="rounded=0;whiteSpace=wrap;html=1;" vertex="1" parent="b28b4HY3Dz4Q6kAJIT05-186">
          <mxGeometry width="165" height="40" as="geometry" />
        </mxCell>
        <mxCell id="b28b4HY3Dz4Q6kAJIT05-167" value="" style="verticalLabelPosition=bottom;shadow=0;dashed=0;align=center;html=1;verticalAlign=top;shape=mxgraph.electrical.opto_electronics.7_segment_display_with_dp;pointerEvents=1;" vertex="1" parent="b28b4HY3Dz4Q6kAJIT05-186">
          <mxGeometry x="5" y="10" width="10" height="20" as="geometry" />
        </mxCell>
        <mxCell id="b28b4HY3Dz4Q6kAJIT05-168" value="" style="verticalLabelPosition=bottom;shadow=0;dashed=0;align=center;html=1;verticalAlign=top;shape=mxgraph.electrical.opto_electronics.7_segment_display_with_dp;pointerEvents=1;" vertex="1" parent="b28b4HY3Dz4Q6kAJIT05-186">
          <mxGeometry x="15" y="10" width="10" height="20" as="geometry" />
        </mxCell>
        <mxCell id="b28b4HY3Dz4Q6kAJIT05-169" value="" style="verticalLabelPosition=bottom;shadow=0;dashed=0;align=center;html=1;verticalAlign=top;shape=mxgraph.electrical.opto_electronics.7_segment_display_with_dp;pointerEvents=1;" vertex="1" parent="b28b4HY3Dz4Q6kAJIT05-186">
          <mxGeometry x="25" y="10" width="10" height="20" as="geometry" />
        </mxCell>
        <mxCell id="b28b4HY3Dz4Q6kAJIT05-170" value="" style="verticalLabelPosition=bottom;shadow=0;dashed=0;align=center;html=1;verticalAlign=top;shape=mxgraph.electrical.opto_electronics.7_segment_display_with_dp;pointerEvents=1;" vertex="1" parent="b28b4HY3Dz4Q6kAJIT05-186">
          <mxGeometry x="45" y="10" width="10" height="20" as="geometry" />
        </mxCell>
        <mxCell id="b28b4HY3Dz4Q6kAJIT05-171" value="" style="verticalLabelPosition=bottom;shadow=0;dashed=0;align=center;html=1;verticalAlign=top;shape=mxgraph.electrical.opto_electronics.7_segment_display_with_dp;pointerEvents=1;" vertex="1" parent="b28b4HY3Dz4Q6kAJIT05-186">
          <mxGeometry x="55" y="10" width="10" height="20" as="geometry" />
        </mxCell>
        <mxCell id="b28b4HY3Dz4Q6kAJIT05-172" value="" style="verticalLabelPosition=bottom;shadow=0;dashed=0;align=center;html=1;verticalAlign=top;shape=mxgraph.electrical.opto_electronics.7_segment_display_with_dp;pointerEvents=1;" vertex="1" parent="b28b4HY3Dz4Q6kAJIT05-186">
          <mxGeometry x="75" y="10" width="10" height="20" as="geometry" />
        </mxCell>
        <mxCell id="b28b4HY3Dz4Q6kAJIT05-173" value="" style="verticalLabelPosition=bottom;shadow=0;dashed=0;align=center;html=1;verticalAlign=top;shape=mxgraph.electrical.opto_electronics.7_segment_display_with_dp;pointerEvents=1;" vertex="1" parent="b28b4HY3Dz4Q6kAJIT05-186">
          <mxGeometry x="85" y="10" width="10" height="20" as="geometry" />
        </mxCell>
        <mxCell id="b28b4HY3Dz4Q6kAJIT05-174" value="" style="verticalLabelPosition=bottom;shadow=0;dashed=0;align=center;html=1;verticalAlign=top;shape=mxgraph.electrical.opto_electronics.7_segment_display_with_dp;pointerEvents=1;" vertex="1" parent="b28b4HY3Dz4Q6kAJIT05-186">
          <mxGeometry x="105" y="10" width="10" height="20" as="geometry" />
        </mxCell>
        <mxCell id="b28b4HY3Dz4Q6kAJIT05-175" value="" style="verticalLabelPosition=bottom;shadow=0;dashed=0;align=center;html=1;verticalAlign=top;shape=mxgraph.electrical.opto_electronics.7_segment_display_with_dp;pointerEvents=1;" vertex="1" parent="b28b4HY3Dz4Q6kAJIT05-186">
          <mxGeometry x="115" y="10" width="10" height="20" as="geometry" />
        </mxCell>
        <mxCell id="b28b4HY3Dz4Q6kAJIT05-176" value="" style="verticalLabelPosition=bottom;shadow=0;dashed=0;align=center;html=1;verticalAlign=top;shape=mxgraph.electrical.opto_electronics.7_segment_display_with_dp;pointerEvents=1;" vertex="1" parent="b28b4HY3Dz4Q6kAJIT05-186">
          <mxGeometry x="125" y="10" width="10" height="20" as="geometry" />
        </mxCell>
        <mxCell id="b28b4HY3Dz4Q6kAJIT05-192" value="Timecode" style="text;html=1;align=center;verticalAlign=middle;resizable=0;points=[];autosize=1;strokeColor=none;fillColor=none;fontSize=10;" vertex="1" parent="b28b4HY3Dz4Q6kAJIT05-186">
          <mxGeometry x="45" y="-10" width="70" height="30" as="geometry" />
        </mxCell>
        <mxCell id="b28b4HY3Dz4Q6kAJIT05-193" value="&lt;font style=&quot;font-size: 8px;&quot;&gt;Hours&lt;/font&gt;" style="text;html=1;align=center;verticalAlign=top;resizable=0;points=[];autosize=1;strokeColor=none;fillColor=none;" vertex="1" parent="b28b4HY3Dz4Q6kAJIT05-186">
          <mxGeometry y="20" width="40" height="30" as="geometry" />
        </mxCell>
        <mxCell id="b28b4HY3Dz4Q6kAJIT05-194" value="&lt;div style=&quot;font-size: 8px;&quot;&gt;&lt;font style=&quot;font-size: 8px;&quot;&gt;Mins&lt;/font&gt;&lt;/div&gt;" style="text;html=1;align=center;verticalAlign=middle;resizable=0;points=[];autosize=1;strokeColor=none;fillColor=none;" vertex="1" parent="b28b4HY3Dz4Q6kAJIT05-186">
          <mxGeometry x="35" y="25" width="40" height="20" as="geometry" />
        </mxCell>
        <mxCell id="b28b4HY3Dz4Q6kAJIT05-195" value="&lt;div style=&quot;font-size: 8px;&quot;&gt;Secs&lt;/div&gt;" style="text;html=1;align=center;verticalAlign=top;resizable=0;points=[];autosize=1;strokeColor=none;fillColor=none;fontSize=8;" vertex="1" parent="b28b4HY3Dz4Q6kAJIT05-186">
          <mxGeometry x="62.5" y="25" width="40" height="20" as="geometry" />
        </mxCell>
        <mxCell id="b28b4HY3Dz4Q6kAJIT05-196" value="&lt;div style=&quot;font-size: 8px;&quot;&gt;Frames&lt;/div&gt;" style="text;html=1;align=center;verticalAlign=top;resizable=0;points=[];autosize=1;strokeColor=none;fillColor=none;fontSize=8;" vertex="1" parent="b28b4HY3Dz4Q6kAJIT05-186">
          <mxGeometry x="95" y="25" width="50" height="20" as="geometry" />
        </mxCell>
        <mxCell id="b28b4HY3Dz4Q6kAJIT05-200" value="&lt;div align=&quot;right&quot;&gt;&lt;font style=&quot;font-size: 6px;&quot;&gt;BEATS&lt;/font&gt;&lt;/div&gt;" style="text;html=1;align=right;verticalAlign=middle;resizable=0;points=[];autosize=1;strokeColor=none;fillColor=none;" vertex="1" parent="b28b4HY3Dz4Q6kAJIT05-186">
          <mxGeometry x="125" y="10" width="40" height="30" as="geometry" />
        </mxCell>
        <mxCell id="b28b4HY3Dz4Q6kAJIT05-199" value="&lt;div align=&quot;right&quot;&gt;&lt;font style=&quot;font-size: 6px;&quot;&gt;SMPTE&lt;/font&gt;&lt;/div&gt;" style="text;html=1;align=right;verticalAlign=middle;resizable=0;points=[];autosize=1;strokeColor=none;fillColor=none;" vertex="1" parent="b28b4HY3Dz4Q6kAJIT05-186">
          <mxGeometry x="125" y="-5" width="40" height="30" as="geometry" />
        </mxCell>
        <mxCell id="kM0zrYJ5RfKCdEx-TUV--1" value="" style="group" connectable="0" vertex="1" parent="1">
          <mxGeometry x="530" y="210" width="65" height="50" as="geometry" />
        </mxCell>
        <mxCell id="b28b4HY3Dz4Q6kAJIT05-188" value="" style="ellipse;whiteSpace=wrap;html=1;aspect=fixed;" vertex="1" parent="kM0zrYJ5RfKCdEx-TUV--1">
          <mxGeometry width="50" height="50" as="geometry" />
        </mxCell>
        <mxCell id="b28b4HY3Dz4Q6kAJIT05-198" value="" style="ellipse;whiteSpace=wrap;html=1;aspect=fixed;" vertex="1" parent="kM0zrYJ5RfKCdEx-TUV--1">
          <mxGeometry x="20" y="5" width="20" height="20" as="geometry" />
        </mxCell>
        <mxCell id="kM0zrYJ5RfKCdEx-TUV--24" value="Y" style="text;html=1;align=center;verticalAlign=middle;resizable=0;points=[];autosize=1;strokeColor=none;fillColor=none;" vertex="1" parent="kM0zrYJ5RfKCdEx-TUV--1">
          <mxGeometry x="35" y="-10" width="30" height="30" as="geometry" />
        </mxCell>
        <mxCell id="kM0zrYJ5RfKCdEx-TUV--2" value="" style="group" connectable="0" vertex="1" parent="1">
          <mxGeometry x="460" y="210" width="65" height="50" as="geometry" />
        </mxCell>
        <mxCell id="b28b4HY3Dz4Q6kAJIT05-187" value="" style="ellipse;whiteSpace=wrap;html=1;aspect=fixed;" vertex="1" parent="kM0zrYJ5RfKCdEx-TUV--2">
          <mxGeometry width="50" height="50" as="geometry" />
        </mxCell>
        <mxCell id="b28b4HY3Dz4Q6kAJIT05-197" value="" style="ellipse;whiteSpace=wrap;html=1;aspect=fixed;labelBorderColor=default;" vertex="1" parent="kM0zrYJ5RfKCdEx-TUV--2">
          <mxGeometry x="20" y="5" width="20" height="20" as="geometry" />
        </mxCell>
        <mxCell id="kM0zrYJ5RfKCdEx-TUV--23" value="&lt;div&gt;X&lt;/div&gt;" style="text;html=1;align=center;verticalAlign=middle;resizable=0;points=[];autosize=1;strokeColor=none;fillColor=none;" vertex="1" parent="kM0zrYJ5RfKCdEx-TUV--2">
          <mxGeometry x="35" y="-10" width="30" height="30" as="geometry" />
        </mxCell>
        <mxCell id="kM0zrYJ5RfKCdEx-TUV--16" value="" style="group" connectable="0" vertex="1" parent="1">
          <mxGeometry x="120" y="135" width="140" height="265" as="geometry" />
        </mxCell>
        <mxCell id="kM0zrYJ5RfKCdEx-TUV--7" value="" style="group" connectable="0" vertex="1" parent="kM0zrYJ5RfKCdEx-TUV--16">
          <mxGeometry width="140" height="20" as="geometry" />
        </mxCell>
        <mxCell id="b28b4HY3Dz4Q6kAJIT05-136" value="" style="ellipse;whiteSpace=wrap;html=1;aspect=fixed;" vertex="1" parent="kM0zrYJ5RfKCdEx-TUV--7">
          <mxGeometry width="20" height="20" as="geometry" />
        </mxCell>
        <mxCell id="b28b4HY3Dz4Q6kAJIT05-137" value="" style="ellipse;whiteSpace=wrap;html=1;aspect=fixed;" vertex="1" parent="kM0zrYJ5RfKCdEx-TUV--7">
          <mxGeometry x="30" width="20" height="20" as="geometry" />
        </mxCell>
        <mxCell id="b28b4HY3Dz4Q6kAJIT05-138" value="" style="ellipse;whiteSpace=wrap;html=1;aspect=fixed;" vertex="1" parent="kM0zrYJ5RfKCdEx-TUV--7">
          <mxGeometry x="60" width="20" height="20" as="geometry" />
        </mxCell>
        <mxCell id="b28b4HY3Dz4Q6kAJIT05-139" value="" style="ellipse;whiteSpace=wrap;html=1;aspect=fixed;" vertex="1" parent="kM0zrYJ5RfKCdEx-TUV--7">
          <mxGeometry x="90" width="20" height="20" as="geometry" />
        </mxCell>
        <mxCell id="b28b4HY3Dz4Q6kAJIT05-140" value="" style="ellipse;whiteSpace=wrap;html=1;aspect=fixed;" vertex="1" parent="kM0zrYJ5RfKCdEx-TUV--7">
          <mxGeometry x="120" width="20" height="20" as="geometry" />
        </mxCell>
        <mxCell id="b28b4HY3Dz4Q6kAJIT05-141" value="" style="ellipse;whiteSpace=wrap;html=1;aspect=fixed;" vertex="1" parent="kM0zrYJ5RfKCdEx-TUV--7">
          <mxGeometry x="5" y="5" width="10" height="10" as="geometry" />
        </mxCell>
        <mxCell id="b28b4HY3Dz4Q6kAJIT05-142" value="" style="ellipse;whiteSpace=wrap;html=1;aspect=fixed;" vertex="1" parent="kM0zrYJ5RfKCdEx-TUV--7">
          <mxGeometry x="35" y="5" width="10" height="10" as="geometry" />
        </mxCell>
        <mxCell id="b28b4HY3Dz4Q6kAJIT05-143" value="" style="ellipse;whiteSpace=wrap;html=1;aspect=fixed;" vertex="1" parent="kM0zrYJ5RfKCdEx-TUV--7">
          <mxGeometry x="65" y="5" width="10" height="10" as="geometry" />
        </mxCell>
        <mxCell id="b28b4HY3Dz4Q6kAJIT05-144" value="" style="ellipse;whiteSpace=wrap;html=1;aspect=fixed;" vertex="1" parent="kM0zrYJ5RfKCdEx-TUV--7">
          <mxGeometry x="95" y="5" width="10" height="10" as="geometry" />
        </mxCell>
        <mxCell id="b28b4HY3Dz4Q6kAJIT05-145" value="" style="ellipse;whiteSpace=wrap;html=1;aspect=fixed;" vertex="1" parent="kM0zrYJ5RfKCdEx-TUV--7">
          <mxGeometry x="125" y="5" width="10" height="10" as="geometry" />
        </mxCell>
        <mxCell id="kM0zrYJ5RfKCdEx-TUV--8" value="" style="group" connectable="0" vertex="1" parent="kM0zrYJ5RfKCdEx-TUV--16">
          <mxGeometry y="35" width="140" height="40" as="geometry" />
        </mxCell>
        <mxCell id="b28b4HY3Dz4Q6kAJIT05-116" value="15" style="whiteSpace=wrap;html=1;aspect=fixed;" vertex="1" parent="kM0zrYJ5RfKCdEx-TUV--8">
          <mxGeometry x="120" width="20" height="20" as="geometry" />
        </mxCell>
        <mxCell id="b28b4HY3Dz4Q6kAJIT05-117" value="13" style="whiteSpace=wrap;html=1;aspect=fixed;" vertex="1" parent="kM0zrYJ5RfKCdEx-TUV--8">
          <mxGeometry x="60" width="20" height="20" as="geometry" />
        </mxCell>
        <mxCell id="b28b4HY3Dz4Q6kAJIT05-118" value="14" style="whiteSpace=wrap;html=1;aspect=fixed;" vertex="1" parent="kM0zrYJ5RfKCdEx-TUV--8">
          <mxGeometry x="90" width="20" height="20" as="geometry" />
        </mxCell>
        <mxCell id="b28b4HY3Dz4Q6kAJIT05-119" value="12" style="whiteSpace=wrap;html=1;aspect=fixed;" vertex="1" parent="kM0zrYJ5RfKCdEx-TUV--8">
          <mxGeometry x="30" width="20" height="20" as="geometry" />
        </mxCell>
        <mxCell id="b28b4HY3Dz4Q6kAJIT05-120" value="11" style="whiteSpace=wrap;html=1;aspect=fixed;" vertex="1" parent="kM0zrYJ5RfKCdEx-TUV--8">
          <mxGeometry width="20" height="20" as="geometry" />
        </mxCell>
        <mxCell id="b28b4HY3Dz4Q6kAJIT05-121" value="25" style="whiteSpace=wrap;html=1;aspect=fixed;" vertex="1" parent="kM0zrYJ5RfKCdEx-TUV--8">
          <mxGeometry x="120" y="20" width="20" height="20" as="geometry" />
        </mxCell>
        <mxCell id="b28b4HY3Dz4Q6kAJIT05-122" value="23" style="whiteSpace=wrap;html=1;aspect=fixed;" vertex="1" parent="kM0zrYJ5RfKCdEx-TUV--8">
          <mxGeometry x="60" y="20" width="20" height="20" as="geometry" />
        </mxCell>
        <mxCell id="b28b4HY3Dz4Q6kAJIT05-123" value="24" style="whiteSpace=wrap;html=1;aspect=fixed;" vertex="1" parent="kM0zrYJ5RfKCdEx-TUV--8">
          <mxGeometry x="90" y="20" width="20" height="20" as="geometry" />
        </mxCell>
        <mxCell id="b28b4HY3Dz4Q6kAJIT05-124" value="22" style="whiteSpace=wrap;html=1;aspect=fixed;" vertex="1" parent="kM0zrYJ5RfKCdEx-TUV--8">
          <mxGeometry x="30" y="20" width="20" height="20" as="geometry" />
        </mxCell>
        <mxCell id="b28b4HY3Dz4Q6kAJIT05-125" value="21" style="whiteSpace=wrap;html=1;aspect=fixed;" vertex="1" parent="kM0zrYJ5RfKCdEx-TUV--8">
          <mxGeometry y="20" width="20" height="20" as="geometry" />
        </mxCell>
        <mxCell id="kM0zrYJ5RfKCdEx-TUV--9" value="" style="group" connectable="0" vertex="1" parent="kM0zrYJ5RfKCdEx-TUV--16">
          <mxGeometry y="85" width="140" height="20" as="geometry" />
        </mxCell>
        <mxCell id="b28b4HY3Dz4Q6kAJIT05-96" value="" style="ellipse;whiteSpace=wrap;html=1;aspect=fixed;" vertex="1" parent="kM0zrYJ5RfKCdEx-TUV--9">
          <mxGeometry width="20" height="20" as="geometry" />
        </mxCell>
        <mxCell id="b28b4HY3Dz4Q6kAJIT05-97" value="" style="ellipse;whiteSpace=wrap;html=1;aspect=fixed;" vertex="1" parent="kM0zrYJ5RfKCdEx-TUV--9">
          <mxGeometry x="30" width="20" height="20" as="geometry" />
        </mxCell>
        <mxCell id="b28b4HY3Dz4Q6kAJIT05-98" value="" style="ellipse;whiteSpace=wrap;html=1;aspect=fixed;" vertex="1" parent="kM0zrYJ5RfKCdEx-TUV--9">
          <mxGeometry x="60" width="20" height="20" as="geometry" />
        </mxCell>
        <mxCell id="b28b4HY3Dz4Q6kAJIT05-99" value="" style="ellipse;whiteSpace=wrap;html=1;aspect=fixed;" vertex="1" parent="kM0zrYJ5RfKCdEx-TUV--9">
          <mxGeometry x="90" width="20" height="20" as="geometry" />
        </mxCell>
        <mxCell id="b28b4HY3Dz4Q6kAJIT05-100" value="" style="ellipse;whiteSpace=wrap;html=1;aspect=fixed;" vertex="1" parent="kM0zrYJ5RfKCdEx-TUV--9">
          <mxGeometry x="120" width="20" height="20" as="geometry" />
        </mxCell>
        <mxCell id="b28b4HY3Dz4Q6kAJIT05-101" value="" style="ellipse;whiteSpace=wrap;html=1;aspect=fixed;" vertex="1" parent="kM0zrYJ5RfKCdEx-TUV--9">
          <mxGeometry x="5" y="5" width="10" height="10" as="geometry" />
        </mxCell>
        <mxCell id="b28b4HY3Dz4Q6kAJIT05-102" value="" style="ellipse;whiteSpace=wrap;html=1;aspect=fixed;" vertex="1" parent="kM0zrYJ5RfKCdEx-TUV--9">
          <mxGeometry x="35" y="5" width="10" height="10" as="geometry" />
        </mxCell>
        <mxCell id="b28b4HY3Dz4Q6kAJIT05-103" value="" style="ellipse;whiteSpace=wrap;html=1;aspect=fixed;" vertex="1" parent="kM0zrYJ5RfKCdEx-TUV--9">
          <mxGeometry x="65" y="5" width="10" height="10" as="geometry" />
        </mxCell>
        <mxCell id="b28b4HY3Dz4Q6kAJIT05-104" value="" style="ellipse;whiteSpace=wrap;html=1;aspect=fixed;" vertex="1" parent="kM0zrYJ5RfKCdEx-TUV--9">
          <mxGeometry x="95" y="5" width="10" height="10" as="geometry" />
        </mxCell>
        <mxCell id="b28b4HY3Dz4Q6kAJIT05-105" value="" style="ellipse;whiteSpace=wrap;html=1;aspect=fixed;" vertex="1" parent="kM0zrYJ5RfKCdEx-TUV--9">
          <mxGeometry x="125" y="5" width="10" height="10" as="geometry" />
        </mxCell>
        <mxCell id="kM0zrYJ5RfKCdEx-TUV--10" value="" style="group" connectable="0" vertex="1" parent="kM0zrYJ5RfKCdEx-TUV--16">
          <mxGeometry y="115" width="140" height="10" as="geometry" />
        </mxCell>
        <mxCell id="b28b4HY3Dz4Q6kAJIT05-86" value="" style="rounded=0;whiteSpace=wrap;html=1;" vertex="1" parent="kM0zrYJ5RfKCdEx-TUV--10">
          <mxGeometry width="20" height="10" as="geometry" />
        </mxCell>
        <mxCell id="b28b4HY3Dz4Q6kAJIT05-87" value="" style="rounded=0;whiteSpace=wrap;html=1;" vertex="1" parent="kM0zrYJ5RfKCdEx-TUV--10">
          <mxGeometry x="30" width="20" height="10" as="geometry" />
        </mxCell>
        <mxCell id="b28b4HY3Dz4Q6kAJIT05-88" value="" style="rounded=0;whiteSpace=wrap;html=1;" vertex="1" parent="kM0zrYJ5RfKCdEx-TUV--10">
          <mxGeometry x="60" width="20" height="10" as="geometry" />
        </mxCell>
        <mxCell id="b28b4HY3Dz4Q6kAJIT05-89" value="" style="rounded=0;whiteSpace=wrap;html=1;" vertex="1" parent="kM0zrYJ5RfKCdEx-TUV--10">
          <mxGeometry x="90" width="20" height="10" as="geometry" />
        </mxCell>
        <mxCell id="b28b4HY3Dz4Q6kAJIT05-90" value="" style="rounded=0;whiteSpace=wrap;html=1;" vertex="1" parent="kM0zrYJ5RfKCdEx-TUV--10">
          <mxGeometry x="120" width="20" height="10" as="geometry" />
        </mxCell>
        <mxCell id="kM0zrYJ5RfKCdEx-TUV--11" value="" style="group" connectable="0" vertex="1" parent="kM0zrYJ5RfKCdEx-TUV--16">
          <mxGeometry x="5" y="135" width="130" height="100" as="geometry" />
        </mxCell>
        <mxCell id="b28b4HY3Dz4Q6kAJIT05-76" value="" style="endArrow=none;html=1;rounded=0;" edge="1" parent="kM0zrYJ5RfKCdEx-TUV--11" source="b28b4HY3Dz4Q6kAJIT05-214">
          <mxGeometry width="50" height="50" relative="1" as="geometry">
            <mxPoint x="5" y="100" as="sourcePoint" />
            <mxPoint x="5" as="targetPoint" />
          </mxGeometry>
        </mxCell>
        <mxCell id="b28b4HY3Dz4Q6kAJIT05-77" value="" style="endArrow=none;html=1;rounded=0;" edge="1" parent="kM0zrYJ5RfKCdEx-TUV--11" source="b28b4HY3Dz4Q6kAJIT05-216">
          <mxGeometry width="50" height="50" relative="1" as="geometry">
            <mxPoint x="34.78" y="100" as="sourcePoint" />
            <mxPoint x="34.78" as="targetPoint" />
          </mxGeometry>
        </mxCell>
        <mxCell id="b28b4HY3Dz4Q6kAJIT05-78" value="" style="endArrow=none;html=1;rounded=0;" edge="1" parent="kM0zrYJ5RfKCdEx-TUV--11" source="b28b4HY3Dz4Q6kAJIT05-218">
          <mxGeometry width="50" height="50" relative="1" as="geometry">
            <mxPoint x="64.78" y="100" as="sourcePoint" />
            <mxPoint x="64.78" as="targetPoint" />
          </mxGeometry>
        </mxCell>
        <mxCell id="b28b4HY3Dz4Q6kAJIT05-79" value="" style="endArrow=none;html=1;rounded=0;" edge="1" parent="kM0zrYJ5RfKCdEx-TUV--11" source="b28b4HY3Dz4Q6kAJIT05-221">
          <mxGeometry width="50" height="50" relative="1" as="geometry">
            <mxPoint x="94.78" y="100" as="sourcePoint" />
            <mxPoint x="94.78" as="targetPoint" />
          </mxGeometry>
        </mxCell>
        <mxCell id="b28b4HY3Dz4Q6kAJIT05-80" value="" style="endArrow=none;html=1;rounded=0;" edge="1" parent="kM0zrYJ5RfKCdEx-TUV--11" source="b28b4HY3Dz4Q6kAJIT05-223">
          <mxGeometry width="50" height="50" relative="1" as="geometry">
            <mxPoint x="124.77999999999997" y="100" as="sourcePoint" />
            <mxPoint x="124.77999999999997" as="targetPoint" />
          </mxGeometry>
        </mxCell>
        <mxCell id="b28b4HY3Dz4Q6kAJIT05-215" value="" style="endArrow=none;html=1;rounded=0;" edge="1" parent="kM0zrYJ5RfKCdEx-TUV--11" target="b28b4HY3Dz4Q6kAJIT05-214">
          <mxGeometry width="50" height="50" relative="1" as="geometry">
            <mxPoint x="5" y="100" as="sourcePoint" />
            <mxPoint x="5" as="targetPoint" />
          </mxGeometry>
        </mxCell>
        <mxCell id="b28b4HY3Dz4Q6kAJIT05-214" value="" style="rounded=0;whiteSpace=wrap;html=1;" vertex="1" parent="kM0zrYJ5RfKCdEx-TUV--11">
          <mxGeometry y="80" width="10" height="20" as="geometry" />
        </mxCell>
        <mxCell id="b28b4HY3Dz4Q6kAJIT05-217" value="" style="endArrow=none;html=1;rounded=0;" edge="1" parent="kM0zrYJ5RfKCdEx-TUV--11" target="b28b4HY3Dz4Q6kAJIT05-216">
          <mxGeometry width="50" height="50" relative="1" as="geometry">
            <mxPoint x="34.78" y="100" as="sourcePoint" />
            <mxPoint x="34.78" as="targetPoint" />
          </mxGeometry>
        </mxCell>
        <mxCell id="b28b4HY3Dz4Q6kAJIT05-216" value="" style="rounded=0;whiteSpace=wrap;html=1;" vertex="1" parent="kM0zrYJ5RfKCdEx-TUV--11">
          <mxGeometry x="30" y="80" width="10" height="20" as="geometry" />
        </mxCell>
        <mxCell id="b28b4HY3Dz4Q6kAJIT05-220" value="" style="endArrow=none;html=1;rounded=0;" edge="1" parent="kM0zrYJ5RfKCdEx-TUV--11" target="b28b4HY3Dz4Q6kAJIT05-218">
          <mxGeometry width="50" height="50" relative="1" as="geometry">
            <mxPoint x="64.78" y="100" as="sourcePoint" />
            <mxPoint x="64.78" as="targetPoint" />
          </mxGeometry>
        </mxCell>
        <mxCell id="b28b4HY3Dz4Q6kAJIT05-218" value="" style="rounded=0;whiteSpace=wrap;html=1;" vertex="1" parent="kM0zrYJ5RfKCdEx-TUV--11">
          <mxGeometry x="60" y="80" width="10" height="20" as="geometry" />
        </mxCell>
        <mxCell id="b28b4HY3Dz4Q6kAJIT05-222" value="" style="endArrow=none;html=1;rounded=0;" edge="1" parent="kM0zrYJ5RfKCdEx-TUV--11" target="b28b4HY3Dz4Q6kAJIT05-221">
          <mxGeometry width="50" height="50" relative="1" as="geometry">
            <mxPoint x="94.78" y="100" as="sourcePoint" />
            <mxPoint x="94.78" as="targetPoint" />
          </mxGeometry>
        </mxCell>
        <mxCell id="b28b4HY3Dz4Q6kAJIT05-221" value="" style="rounded=0;whiteSpace=wrap;html=1;" vertex="1" parent="kM0zrYJ5RfKCdEx-TUV--11">
          <mxGeometry x="90" y="80" width="10" height="20" as="geometry" />
        </mxCell>
        <mxCell id="b28b4HY3Dz4Q6kAJIT05-224" value="" style="endArrow=none;html=1;rounded=0;" edge="1" parent="kM0zrYJ5RfKCdEx-TUV--11" target="b28b4HY3Dz4Q6kAJIT05-223">
          <mxGeometry width="50" height="50" relative="1" as="geometry">
            <mxPoint x="124.77999999999997" y="100" as="sourcePoint" />
            <mxPoint x="124.77999999999997" as="targetPoint" />
          </mxGeometry>
        </mxCell>
        <mxCell id="b28b4HY3Dz4Q6kAJIT05-223" value="" style="rounded=0;whiteSpace=wrap;html=1;" vertex="1" parent="kM0zrYJ5RfKCdEx-TUV--11">
          <mxGeometry x="120" y="80" width="10" height="20" as="geometry" />
        </mxCell>
        <mxCell id="kM0zrYJ5RfKCdEx-TUV--14" value="" style="group" connectable="0" vertex="1" parent="kM0zrYJ5RfKCdEx-TUV--16">
          <mxGeometry y="245" width="140" height="20" as="geometry" />
        </mxCell>
        <mxCell id="b28b4HY3Dz4Q6kAJIT05-70" value="5" style="whiteSpace=wrap;html=1;aspect=fixed;" vertex="1" parent="kM0zrYJ5RfKCdEx-TUV--14">
          <mxGeometry x="120" width="20" height="20" as="geometry" />
        </mxCell>
        <mxCell id="b28b4HY3Dz4Q6kAJIT05-71" value="3" style="whiteSpace=wrap;html=1;aspect=fixed;" vertex="1" parent="kM0zrYJ5RfKCdEx-TUV--14">
          <mxGeometry x="60" width="20" height="20" as="geometry" />
        </mxCell>
        <mxCell id="b28b4HY3Dz4Q6kAJIT05-72" value="4" style="whiteSpace=wrap;html=1;aspect=fixed;" vertex="1" parent="kM0zrYJ5RfKCdEx-TUV--14">
          <mxGeometry x="90" width="20" height="20" as="geometry" />
        </mxCell>
        <mxCell id="b28b4HY3Dz4Q6kAJIT05-73" value="2" style="whiteSpace=wrap;html=1;aspect=fixed;" vertex="1" parent="kM0zrYJ5RfKCdEx-TUV--14">
          <mxGeometry x="30" width="20" height="20" as="geometry" />
        </mxCell>
        <mxCell id="b28b4HY3Dz4Q6kAJIT05-74" value="1" style="whiteSpace=wrap;html=1;aspect=fixed;" vertex="1" parent="kM0zrYJ5RfKCdEx-TUV--14">
          <mxGeometry width="20" height="20" as="geometry" />
        </mxCell>
        <mxCell id="kM0zrYJ5RfKCdEx-TUV--17" value="" style="group" connectable="0" vertex="1" parent="1">
          <mxGeometry x="300" y="135" width="140" height="265" as="geometry" />
        </mxCell>
        <mxCell id="b28b4HY3Dz4Q6kAJIT05-91" value="" style="rounded=0;whiteSpace=wrap;html=1;" vertex="1" parent="kM0zrYJ5RfKCdEx-TUV--17">
          <mxGeometry y="115" width="20" height="10" as="geometry" />
        </mxCell>
        <mxCell id="b28b4HY3Dz4Q6kAJIT05-92" value="" style="rounded=0;whiteSpace=wrap;html=1;" vertex="1" parent="kM0zrYJ5RfKCdEx-TUV--17">
          <mxGeometry x="30" y="115" width="20" height="10" as="geometry" />
        </mxCell>
        <mxCell id="b28b4HY3Dz4Q6kAJIT05-93" value="" style="rounded=0;whiteSpace=wrap;html=1;" vertex="1" parent="kM0zrYJ5RfKCdEx-TUV--17">
          <mxGeometry x="60" y="115" width="20" height="10" as="geometry" />
        </mxCell>
        <mxCell id="b28b4HY3Dz4Q6kAJIT05-94" value="" style="rounded=0;whiteSpace=wrap;html=1;" vertex="1" parent="kM0zrYJ5RfKCdEx-TUV--17">
          <mxGeometry x="90" y="115" width="20" height="10" as="geometry" />
        </mxCell>
        <mxCell id="b28b4HY3Dz4Q6kAJIT05-95" value="" style="rounded=0;whiteSpace=wrap;html=1;" vertex="1" parent="kM0zrYJ5RfKCdEx-TUV--17">
          <mxGeometry x="120" y="115" width="20" height="10" as="geometry" />
        </mxCell>
        <mxCell id="kM0zrYJ5RfKCdEx-TUV--4" value="" style="group" connectable="0" vertex="1" parent="kM0zrYJ5RfKCdEx-TUV--17">
          <mxGeometry width="140" height="20" as="geometry" />
        </mxCell>
        <mxCell id="b28b4HY3Dz4Q6kAJIT05-146" value="" style="ellipse;whiteSpace=wrap;html=1;aspect=fixed;" vertex="1" parent="kM0zrYJ5RfKCdEx-TUV--4">
          <mxGeometry width="20" height="20" as="geometry" />
        </mxCell>
        <mxCell id="b28b4HY3Dz4Q6kAJIT05-147" value="" style="ellipse;whiteSpace=wrap;html=1;aspect=fixed;" vertex="1" parent="kM0zrYJ5RfKCdEx-TUV--4">
          <mxGeometry x="30" width="20" height="20" as="geometry" />
        </mxCell>
        <mxCell id="b28b4HY3Dz4Q6kAJIT05-148" value="" style="ellipse;whiteSpace=wrap;html=1;aspect=fixed;" vertex="1" parent="kM0zrYJ5RfKCdEx-TUV--4">
          <mxGeometry x="60" width="20" height="20" as="geometry" />
        </mxCell>
        <mxCell id="b28b4HY3Dz4Q6kAJIT05-149" value="" style="ellipse;whiteSpace=wrap;html=1;aspect=fixed;" vertex="1" parent="kM0zrYJ5RfKCdEx-TUV--4">
          <mxGeometry x="90" width="20" height="20" as="geometry" />
        </mxCell>
        <mxCell id="b28b4HY3Dz4Q6kAJIT05-150" value="" style="ellipse;whiteSpace=wrap;html=1;aspect=fixed;" vertex="1" parent="kM0zrYJ5RfKCdEx-TUV--4">
          <mxGeometry x="120" width="20" height="20" as="geometry" />
        </mxCell>
        <mxCell id="kM0zrYJ5RfKCdEx-TUV--3" value="" style="group" connectable="0" vertex="1" parent="kM0zrYJ5RfKCdEx-TUV--4">
          <mxGeometry x="5" y="5" width="130" height="10" as="geometry" />
        </mxCell>
        <mxCell id="b28b4HY3Dz4Q6kAJIT05-151" value="" style="ellipse;whiteSpace=wrap;html=1;aspect=fixed;" vertex="1" parent="kM0zrYJ5RfKCdEx-TUV--3">
          <mxGeometry width="10" height="10" as="geometry" />
        </mxCell>
        <mxCell id="b28b4HY3Dz4Q6kAJIT05-152" value="" style="ellipse;whiteSpace=wrap;html=1;aspect=fixed;" vertex="1" parent="kM0zrYJ5RfKCdEx-TUV--3">
          <mxGeometry x="30" width="10" height="10" as="geometry" />
        </mxCell>
        <mxCell id="b28b4HY3Dz4Q6kAJIT05-153" value="" style="ellipse;whiteSpace=wrap;html=1;aspect=fixed;" vertex="1" parent="kM0zrYJ5RfKCdEx-TUV--3">
          <mxGeometry x="60" width="10" height="10" as="geometry" />
        </mxCell>
        <mxCell id="b28b4HY3Dz4Q6kAJIT05-154" value="" style="ellipse;whiteSpace=wrap;html=1;aspect=fixed;" vertex="1" parent="kM0zrYJ5RfKCdEx-TUV--3">
          <mxGeometry x="90" width="10" height="10" as="geometry" />
        </mxCell>
        <mxCell id="b28b4HY3Dz4Q6kAJIT05-155" value="" style="ellipse;whiteSpace=wrap;html=1;aspect=fixed;" vertex="1" parent="kM0zrYJ5RfKCdEx-TUV--3">
          <mxGeometry x="120" width="10" height="10" as="geometry" />
        </mxCell>
        <mxCell id="kM0zrYJ5RfKCdEx-TUV--5" value="" style="group" connectable="0" vertex="1" parent="kM0zrYJ5RfKCdEx-TUV--17">
          <mxGeometry y="85" width="140" height="20" as="geometry" />
        </mxCell>
        <mxCell id="b28b4HY3Dz4Q6kAJIT05-106" value="" style="ellipse;whiteSpace=wrap;html=1;aspect=fixed;" vertex="1" parent="kM0zrYJ5RfKCdEx-TUV--5">
          <mxGeometry width="20" height="20" as="geometry" />
        </mxCell>
        <mxCell id="b28b4HY3Dz4Q6kAJIT05-107" value="" style="ellipse;whiteSpace=wrap;html=1;aspect=fixed;" vertex="1" parent="kM0zrYJ5RfKCdEx-TUV--5">
          <mxGeometry x="30" width="20" height="20" as="geometry" />
        </mxCell>
        <mxCell id="b28b4HY3Dz4Q6kAJIT05-108" value="" style="ellipse;whiteSpace=wrap;html=1;aspect=fixed;" vertex="1" parent="kM0zrYJ5RfKCdEx-TUV--5">
          <mxGeometry x="60" width="20" height="20" as="geometry" />
        </mxCell>
        <mxCell id="b28b4HY3Dz4Q6kAJIT05-109" value="" style="ellipse;whiteSpace=wrap;html=1;aspect=fixed;" vertex="1" parent="kM0zrYJ5RfKCdEx-TUV--5">
          <mxGeometry x="90" width="20" height="20" as="geometry" />
        </mxCell>
        <mxCell id="b28b4HY3Dz4Q6kAJIT05-110" value="" style="ellipse;whiteSpace=wrap;html=1;aspect=fixed;" vertex="1" parent="kM0zrYJ5RfKCdEx-TUV--5">
          <mxGeometry x="120" width="20" height="20" as="geometry" />
        </mxCell>
        <mxCell id="b28b4HY3Dz4Q6kAJIT05-111" value="" style="ellipse;whiteSpace=wrap;html=1;aspect=fixed;" vertex="1" parent="kM0zrYJ5RfKCdEx-TUV--5">
          <mxGeometry x="5" y="5" width="10" height="10" as="geometry" />
        </mxCell>
        <mxCell id="b28b4HY3Dz4Q6kAJIT05-112" value="" style="ellipse;whiteSpace=wrap;html=1;aspect=fixed;" vertex="1" parent="kM0zrYJ5RfKCdEx-TUV--5">
          <mxGeometry x="35" y="5" width="10" height="10" as="geometry" />
        </mxCell>
        <mxCell id="b28b4HY3Dz4Q6kAJIT05-113" value="" style="ellipse;whiteSpace=wrap;html=1;aspect=fixed;" vertex="1" parent="kM0zrYJ5RfKCdEx-TUV--5">
          <mxGeometry x="65" y="5" width="10" height="10" as="geometry" />
        </mxCell>
        <mxCell id="b28b4HY3Dz4Q6kAJIT05-114" value="" style="ellipse;whiteSpace=wrap;html=1;aspect=fixed;" vertex="1" parent="kM0zrYJ5RfKCdEx-TUV--5">
          <mxGeometry x="95" y="5" width="10" height="10" as="geometry" />
        </mxCell>
        <mxCell id="b28b4HY3Dz4Q6kAJIT05-115" value="" style="ellipse;whiteSpace=wrap;html=1;aspect=fixed;" vertex="1" parent="kM0zrYJ5RfKCdEx-TUV--5">
          <mxGeometry x="125" y="5" width="10" height="10" as="geometry" />
        </mxCell>
        <mxCell id="kM0zrYJ5RfKCdEx-TUV--6" value="" style="group" connectable="0" vertex="1" parent="kM0zrYJ5RfKCdEx-TUV--17">
          <mxGeometry y="35" width="140" height="40" as="geometry" />
        </mxCell>
        <mxCell id="b28b4HY3Dz4Q6kAJIT05-126" value="20" style="whiteSpace=wrap;html=1;aspect=fixed;" vertex="1" parent="kM0zrYJ5RfKCdEx-TUV--6">
          <mxGeometry x="120" width="20" height="20" as="geometry" />
        </mxCell>
        <mxCell id="b28b4HY3Dz4Q6kAJIT05-127" value="18" style="whiteSpace=wrap;html=1;aspect=fixed;" vertex="1" parent="kM0zrYJ5RfKCdEx-TUV--6">
          <mxGeometry x="60" width="20" height="20" as="geometry" />
        </mxCell>
        <mxCell id="b28b4HY3Dz4Q6kAJIT05-128" value="19" style="whiteSpace=wrap;html=1;aspect=fixed;" vertex="1" parent="kM0zrYJ5RfKCdEx-TUV--6">
          <mxGeometry x="90" width="20" height="20" as="geometry" />
        </mxCell>
        <mxCell id="b28b4HY3Dz4Q6kAJIT05-129" value="17" style="whiteSpace=wrap;html=1;aspect=fixed;" vertex="1" parent="kM0zrYJ5RfKCdEx-TUV--6">
          <mxGeometry x="30" width="20" height="20" as="geometry" />
        </mxCell>
        <mxCell id="b28b4HY3Dz4Q6kAJIT05-130" value="16" style="whiteSpace=wrap;html=1;aspect=fixed;" vertex="1" parent="kM0zrYJ5RfKCdEx-TUV--6">
          <mxGeometry width="20" height="20" as="geometry" />
        </mxCell>
        <mxCell id="b28b4HY3Dz4Q6kAJIT05-131" value="30" style="whiteSpace=wrap;html=1;aspect=fixed;" vertex="1" parent="kM0zrYJ5RfKCdEx-TUV--6">
          <mxGeometry x="120" y="20" width="20" height="20" as="geometry" />
        </mxCell>
        <mxCell id="b28b4HY3Dz4Q6kAJIT05-132" value="28" style="whiteSpace=wrap;html=1;aspect=fixed;" vertex="1" parent="kM0zrYJ5RfKCdEx-TUV--6">
          <mxGeometry x="60" y="20" width="20" height="20" as="geometry" />
        </mxCell>
        <mxCell id="b28b4HY3Dz4Q6kAJIT05-133" value="29" style="whiteSpace=wrap;html=1;aspect=fixed;" vertex="1" parent="kM0zrYJ5RfKCdEx-TUV--6">
          <mxGeometry x="90" y="20" width="20" height="20" as="geometry" />
        </mxCell>
        <mxCell id="b28b4HY3Dz4Q6kAJIT05-134" value="27" style="whiteSpace=wrap;html=1;aspect=fixed;" vertex="1" parent="kM0zrYJ5RfKCdEx-TUV--6">
          <mxGeometry x="30" y="20" width="20" height="20" as="geometry" />
        </mxCell>
        <mxCell id="b28b4HY3Dz4Q6kAJIT05-135" value="26" style="whiteSpace=wrap;html=1;aspect=fixed;" vertex="1" parent="kM0zrYJ5RfKCdEx-TUV--6">
          <mxGeometry y="20" width="20" height="20" as="geometry" />
        </mxCell>
        <mxCell id="kM0zrYJ5RfKCdEx-TUV--12" value="" style="group" connectable="0" vertex="1" parent="kM0zrYJ5RfKCdEx-TUV--17">
          <mxGeometry x="5" y="135" width="130" height="100" as="geometry" />
        </mxCell>
        <mxCell id="b28b4HY3Dz4Q6kAJIT05-81" value="" style="endArrow=none;html=1;rounded=0;" edge="1" parent="kM0zrYJ5RfKCdEx-TUV--12" source="b28b4HY3Dz4Q6kAJIT05-225">
          <mxGeometry width="50" height="50" relative="1" as="geometry">
            <mxPoint x="4.779999999999973" y="100" as="sourcePoint" />
            <mxPoint x="4.779999999999973" as="targetPoint" />
          </mxGeometry>
        </mxCell>
        <mxCell id="b28b4HY3Dz4Q6kAJIT05-82" value="" style="endArrow=none;html=1;rounded=0;" edge="1" parent="kM0zrYJ5RfKCdEx-TUV--12" source="b28b4HY3Dz4Q6kAJIT05-227">
          <mxGeometry width="50" height="50" relative="1" as="geometry">
            <mxPoint x="34.77999999999997" y="100" as="sourcePoint" />
            <mxPoint x="34.77999999999997" as="targetPoint" />
          </mxGeometry>
        </mxCell>
        <mxCell id="b28b4HY3Dz4Q6kAJIT05-83" value="" style="endArrow=none;html=1;rounded=0;" edge="1" parent="kM0zrYJ5RfKCdEx-TUV--12">
          <mxGeometry width="50" height="50" relative="1" as="geometry">
            <mxPoint x="64.77999999999997" y="100" as="sourcePoint" />
            <mxPoint x="64.77999999999997" as="targetPoint" />
          </mxGeometry>
        </mxCell>
        <mxCell id="b28b4HY3Dz4Q6kAJIT05-84" value="" style="endArrow=none;html=1;rounded=0;" edge="1" parent="kM0zrYJ5RfKCdEx-TUV--12">
          <mxGeometry width="50" height="50" relative="1" as="geometry">
            <mxPoint x="94.77999999999997" y="100" as="sourcePoint" />
            <mxPoint x="94.77999999999997" as="targetPoint" />
          </mxGeometry>
        </mxCell>
        <mxCell id="b28b4HY3Dz4Q6kAJIT05-85" value="" style="endArrow=none;html=1;rounded=0;" edge="1" parent="kM0zrYJ5RfKCdEx-TUV--12" source="b28b4HY3Dz4Q6kAJIT05-231">
          <mxGeometry width="50" height="50" relative="1" as="geometry">
            <mxPoint x="124.77999999999997" y="100" as="sourcePoint" />
            <mxPoint x="124.77999999999997" as="targetPoint" />
          </mxGeometry>
        </mxCell>
        <mxCell id="b28b4HY3Dz4Q6kAJIT05-226" value="" style="endArrow=none;html=1;rounded=0;" edge="1" parent="kM0zrYJ5RfKCdEx-TUV--12" target="b28b4HY3Dz4Q6kAJIT05-225">
          <mxGeometry width="50" height="50" relative="1" as="geometry">
            <mxPoint x="4.779999999999973" y="100" as="sourcePoint" />
            <mxPoint x="4.779999999999973" as="targetPoint" />
          </mxGeometry>
        </mxCell>
        <mxCell id="b28b4HY3Dz4Q6kAJIT05-225" value="" style="rounded=0;whiteSpace=wrap;html=1;" vertex="1" parent="kM0zrYJ5RfKCdEx-TUV--12">
          <mxGeometry y="80" width="10" height="20" as="geometry" />
        </mxCell>
        <mxCell id="b28b4HY3Dz4Q6kAJIT05-228" value="" style="endArrow=none;html=1;rounded=0;" edge="1" parent="kM0zrYJ5RfKCdEx-TUV--12" target="b28b4HY3Dz4Q6kAJIT05-227">
          <mxGeometry width="50" height="50" relative="1" as="geometry">
            <mxPoint x="34.77999999999997" y="100" as="sourcePoint" />
            <mxPoint x="34.77999999999997" as="targetPoint" />
          </mxGeometry>
        </mxCell>
        <mxCell id="b28b4HY3Dz4Q6kAJIT05-227" value="" style="rounded=0;whiteSpace=wrap;html=1;" vertex="1" parent="kM0zrYJ5RfKCdEx-TUV--12">
          <mxGeometry x="30" y="80" width="10" height="20" as="geometry" />
        </mxCell>
        <mxCell id="b28b4HY3Dz4Q6kAJIT05-229" value="" style="rounded=0;whiteSpace=wrap;html=1;" vertex="1" parent="kM0zrYJ5RfKCdEx-TUV--12">
          <mxGeometry x="60" y="80" width="10" height="20" as="geometry" />
        </mxCell>
        <mxCell id="b28b4HY3Dz4Q6kAJIT05-230" value="" style="rounded=0;whiteSpace=wrap;html=1;" vertex="1" parent="kM0zrYJ5RfKCdEx-TUV--12">
          <mxGeometry x="90" y="80" width="10" height="20" as="geometry" />
        </mxCell>
        <mxCell id="b28b4HY3Dz4Q6kAJIT05-232" value="" style="endArrow=none;html=1;rounded=0;" edge="1" parent="kM0zrYJ5RfKCdEx-TUV--12" target="b28b4HY3Dz4Q6kAJIT05-231">
          <mxGeometry width="50" height="50" relative="1" as="geometry">
            <mxPoint x="124.77999999999997" y="100" as="sourcePoint" />
            <mxPoint x="124.77999999999997" as="targetPoint" />
          </mxGeometry>
        </mxCell>
        <mxCell id="b28b4HY3Dz4Q6kAJIT05-231" value="" style="rounded=0;whiteSpace=wrap;html=1;" vertex="1" parent="kM0zrYJ5RfKCdEx-TUV--12">
          <mxGeometry x="120" y="80" width="10" height="20" as="geometry" />
        </mxCell>
        <mxCell id="kM0zrYJ5RfKCdEx-TUV--15" value="" style="group" connectable="0" vertex="1" parent="kM0zrYJ5RfKCdEx-TUV--17">
          <mxGeometry y="245" width="140" height="20" as="geometry" />
        </mxCell>
        <mxCell id="b28b4HY3Dz4Q6kAJIT05-53" value="10" style="whiteSpace=wrap;html=1;aspect=fixed;" vertex="1" parent="kM0zrYJ5RfKCdEx-TUV--15">
          <mxGeometry x="120" width="20" height="20" as="geometry" />
        </mxCell>
        <mxCell id="b28b4HY3Dz4Q6kAJIT05-54" value="8" style="whiteSpace=wrap;html=1;aspect=fixed;" vertex="1" parent="kM0zrYJ5RfKCdEx-TUV--15">
          <mxGeometry x="60" width="20" height="20" as="geometry" />
        </mxCell>
        <mxCell id="b28b4HY3Dz4Q6kAJIT05-55" value="9" style="whiteSpace=wrap;html=1;aspect=fixed;" vertex="1" parent="kM0zrYJ5RfKCdEx-TUV--15">
          <mxGeometry x="90" width="20" height="20" as="geometry" />
        </mxCell>
        <mxCell id="b28b4HY3Dz4Q6kAJIT05-56" value="7" style="whiteSpace=wrap;html=1;aspect=fixed;" vertex="1" parent="kM0zrYJ5RfKCdEx-TUV--15">
          <mxGeometry x="30" width="20" height="20" as="geometry" />
        </mxCell>
        <mxCell id="b28b4HY3Dz4Q6kAJIT05-57" value="6" style="whiteSpace=wrap;html=1;aspect=fixed;" vertex="1" parent="kM0zrYJ5RfKCdEx-TUV--15">
          <mxGeometry width="20" height="20" as="geometry" />
        </mxCell>
        <mxCell id="kM0zrYJ5RfKCdEx-TUV--20" value="" style="group" connectable="0" vertex="1" parent="1">
          <mxGeometry x="710" y="215" width="20" height="35" as="geometry" />
        </mxCell>
        <mxCell id="b28b4HY3Dz4Q6kAJIT05-202" value="&lt;font style=&quot;font-size: 8px;&quot;&gt;BPM&lt;/font&gt;" style="whiteSpace=wrap;html=1;aspect=fixed;" vertex="1" parent="kM0zrYJ5RfKCdEx-TUV--20">
          <mxGeometry y="15" width="20" height="20" as="geometry" />
        </mxCell>
        <mxCell id="b28b4HY3Dz4Q6kAJIT05-235" value="" style="rounded=0;whiteSpace=wrap;html=1;" vertex="1" parent="kM0zrYJ5RfKCdEx-TUV--20">
          <mxGeometry width="20" height="10" as="geometry" />
        </mxCell>
        <mxCell id="kM0zrYJ5RfKCdEx-TUV--21" value="" style="group" connectable="0" vertex="1" parent="1">
          <mxGeometry x="710" y="270" width="20" height="130" as="geometry" />
        </mxCell>
        <mxCell id="b28b4HY3Dz4Q6kAJIT05-189" value="&lt;div&gt;BO&lt;/div&gt;" style="whiteSpace=wrap;html=1;aspect=fixed;" vertex="1" parent="kM0zrYJ5RfKCdEx-TUV--21">
          <mxGeometry y="110" width="20" height="20" as="geometry" />
        </mxCell>
        <mxCell id="b28b4HY3Dz4Q6kAJIT05-191" value="" style="endArrow=none;html=1;rounded=0;" edge="1" parent="kM0zrYJ5RfKCdEx-TUV--21" source="b28b4HY3Dz4Q6kAJIT05-233">
          <mxGeometry width="50" height="50" relative="1" as="geometry">
            <mxPoint x="9.789999999999964" y="100" as="sourcePoint" />
            <mxPoint x="9.789999999999964" as="targetPoint" />
          </mxGeometry>
        </mxCell>
        <mxCell id="b28b4HY3Dz4Q6kAJIT05-234" value="" style="endArrow=none;html=1;rounded=0;" edge="1" parent="kM0zrYJ5RfKCdEx-TUV--21" target="b28b4HY3Dz4Q6kAJIT05-233">
          <mxGeometry width="50" height="50" relative="1" as="geometry">
            <mxPoint x="9.789999999999964" y="100" as="sourcePoint" />
            <mxPoint x="9.789999999999964" as="targetPoint" />
          </mxGeometry>
        </mxCell>
        <mxCell id="b28b4HY3Dz4Q6kAJIT05-233" value="" style="rounded=0;whiteSpace=wrap;html=1;" vertex="1" parent="kM0zrYJ5RfKCdEx-TUV--21">
          <mxGeometry x="5" y="80" width="10" height="20" as="geometry" />
        </mxCell>
        <mxCell id="kM0zrYJ5RfKCdEx-TUV--22" value="" style="group" connectable="0" vertex="1" parent="1">
          <mxGeometry x="255" y="276.5" width="50" height="83.5" as="geometry" />
        </mxCell>
        <mxCell id="b28b4HY3Dz4Q6kAJIT05-211" value="&lt;div style=&quot;font-size: 11px;&quot;&gt;&lt;font style=&quot;font-size: 10px;&quot;&gt;Bank&lt;/font&gt;&lt;/div&gt;" style="text;html=1;align=center;verticalAlign=middle;resizable=0;points=[];autosize=1;strokeColor=none;fillColor=none;" vertex="1" parent="kM0zrYJ5RfKCdEx-TUV--22">
          <mxGeometry width="50" height="30" as="geometry" />
        </mxCell>
        <mxCell id="kM0zrYJ5RfKCdEx-TUV--13" value="" style="group" connectable="0" vertex="1" parent="kM0zrYJ5RfKCdEx-TUV--22">
          <mxGeometry x="15" y="23.5" width="20" height="60" as="geometry" />
        </mxCell>
        <mxCell id="b28b4HY3Dz4Q6kAJIT05-5" value="^" style="whiteSpace=wrap;html=1;aspect=fixed;" vertex="1" parent="kM0zrYJ5RfKCdEx-TUV--13">
          <mxGeometry y="20" width="20" height="20" as="geometry" />
        </mxCell>
        <mxCell id="b28b4HY3Dz4Q6kAJIT05-156" value="v" style="whiteSpace=wrap;html=1;aspect=fixed;" vertex="1" parent="kM0zrYJ5RfKCdEx-TUV--13">
          <mxGeometry y="40" width="20" height="20" as="geometry" />
        </mxCell>
        <mxCell id="b28b4HY3Dz4Q6kAJIT05-162" value="" style="rounded=0;whiteSpace=wrap;html=1;" vertex="1" parent="kM0zrYJ5RfKCdEx-TUV--13">
          <mxGeometry width="20" height="10" as="geometry" />
        </mxCell>
      </root>
    </mxGraphModel>
  </diagram>
</mxfile>
